<?xml version="1.0" encoding="UTF-8"?>
<svg id="Camada_1" data-name="Camada 1" xmlns="http://www.w3.org/2000/svg" viewBox="0 0 1920 1080">
  <defs>
    <style>
      .cls-1 {
        fill: #b5e1a5;
      }

      .cls-2 {
        fill: #0a0a0a;
      }
    </style>
  </defs>
  <rect class="cls-2" x="-2.49" y="-1.4" width="1924.97" height="1082.8"/>
  <path class="cls-1" d="m960,638.68c172.75,0,263.13-49.64,263.13-98.67,0-30.42-34.81-61.08-102.48-79.97,10.63-39.13-.89-59.67-9.94-69.09-11.17-11.62-38.68-27.25-97.39-1.34-77.96,34.41-165.8,121.11-202.17,198.97-51.8-13.71-81.39-33.08-81.39-48.45,0-21.27,56.61-50.18,150.34-61.17l23.83-35.75c-136.18,9.48-207.06,53.37-207.06,96.79,0,30.42,34.81,61.08,102.48,79.97-10.63,39.13.89,59.68,9.95,69.09,6.72,6.98,19.33,15.4,41.05,15.4,14.43,0,32.9-3.72,56.33-14.06,19.87-8.77,40.39-20.94,60.54-35.5l-41.77-11.89c-10.75,6.67-21.44,12.45-31.87,17.09-34.25,15.25-53.64,13.13-60.37,6.08-4.99-5.23-7.13-17.8-1.1-38.53,35.76,6.96,78.44,11.03,127.89,11.03Zm230.24-98.55c0,22.15-61.41,52.6-162.23,62.45,34.2-34.54,63.35-73.73,80.76-110.92,51.85,13.71,81.47,33.09,81.47,48.47Zm-163.82-120.22c34.23-15.24,53.63-13.13,60.37-6.08,4.99,5.23,7.13,17.8,1.09,38.53-29.05-5.65-62.68-9.39-100.79-10.6,13.26-8.71,26.49-16.14,39.33-21.85Zm-82.54,54.74c5.29-.11,10.66-.18,16.11-.18,43.57,0,82.25,3.74,114.89,9.7-21.1,41.56-58.14,86.07-99.09,121.45-5.2.11-10.46.17-15.81.17-43.62,0-82.33-3.75-114.99-9.71,21.04-41.52,57.99-86.02,98.88-121.43Z"/>
</svg>