<?xml version="1.0" encoding="UTF-8"?>
<svg id="Camada_1" data-name="Camada 1" xmlns="http://www.w3.org/2000/svg" viewBox="0 0 1924.97 1082.8">
  <defs>
    <style>
      .cls-1 {
        fill: #b5e1a5;
      }

      .cls-2 {
        fill: #abbab3;
      }

      .cls-3 {
        fill: #0a0a0a;
      }
    </style>
  </defs>
  <rect class="cls-3" x="-2.49" y="-1.4" width="1924.97" height="1082.8"/>
  <g>
    <path class="cls-2" d="m1208.68,592.52c-2.4,0-4.64-.45-6.74-1.34-2.1-.9-3.93-2.14-5.5-3.72-1.57-1.59-2.81-3.42-3.71-5.5-.9-2.08-1.34-4.32-1.34-6.72s.45-4.6,1.34-6.68c.9-2.08,2.13-3.92,3.71-5.5,1.57-1.59,3.41-2.82,5.5-3.7,2.09-.88,4.34-1.33,6.74-1.33s4.6.44,6.68,1.33c2.08.88,3.91,2.12,5.49,3.7,1.57,1.59,2.81,3.42,3.71,5.5.9,2.08,1.34,4.31,1.34,6.68s-.45,4.64-1.34,6.72c-.9,2.08-2.13,3.92-3.71,5.5-1.57,1.59-3.4,2.83-5.49,3.72-2.08.9-4.31,1.34-6.68,1.34Zm0-3.63c2.49,0,4.78-.62,6.85-1.85,2.07-1.24,3.72-2.88,4.94-4.94,1.22-2.06,1.83-4.35,1.83-6.87s-.61-4.81-1.83-6.87c-1.22-2.06-2.87-3.7-4.94-4.92-2.07-1.22-4.35-1.83-6.85-1.83s-4.81.61-6.88,1.83c-2.07,1.22-3.72,2.86-4.96,4.92-1.24,2.06-1.85,4.35-1.85,6.87s.62,4.81,1.85,6.87c1.24,2.06,2.89,3.71,4.96,4.94,2.07,1.23,4.36,1.85,6.88,1.85Zm-5.92-5.38v-16.82h7.37c1.5,0,2.8.53,3.89,1.6,1.09,1.07,1.65,2.35,1.67,3.85,0,.94-.28,1.88-.84,2.82-.56.93-1.33,1.63-2.32,2.09l3.2,6.47h-3.12l-2.87-5.96h-4.25v5.96h-2.72Zm2.72-8.54h4.61c.73,0,1.37-.28,1.94-.84.57-.56.85-1.22.85-2,0-.87-.3-1.57-.89-2.09-.59-.52-1.23-.78-1.91-.78h-4.61v5.7Z"/>
    <g>
      <polygon class="cls-2" points="722.98 662.51 722.98 659.82 728.75 656.94 778.05 591.34 778.05 575.26 694.71 575.26 694.71 592.99 741.75 592.99 749.38 592.37 749.38 594.65 743.19 598.15 694.1 663.33 694.1 679.62 778.46 679.62 778.46 661.68 730.19 661.68 722.98 662.51"/>
      <rect class="cls-2" x="801.15" y="575.26" width="23.93" height="104.37"/>
      <polygon class="cls-2" points="948.21 578.56 948.21 575.46 923.67 575.26 899.12 611.56 897.89 617.54 895 617.54 893.56 611.56 868.8 575.26 843.84 575.26 843.84 578.56 876.88 626.78 842.81 676.53 842.81 679.62 867.98 679.62 893.14 642.29 894.38 636.31 897.06 636.31 898.51 642.29 923.87 679.62 949.24 679.62 949.24 676.32 914.91 626.89 948.21 578.56"/>
      <path class="cls-2" d="m1034.02,579.38c-7.15-4.13-15.88-6.19-26.2-6.19s-19.94,2.2-27.64,6.6c-7.7,4.4-13.61,10.69-17.74,18.87-4.12,8.18-6.19,17.98-6.19,29.39s1.93,20.7,5.78,28.67c3.85,7.98,9.56,14.1,17.12,18.36,7.56,4.27,16.71,6.39,27.44,6.39,13.88,0,24.96-3.13,33.21-9.38,8.25-6.25,13.33-14.82,15.26-25.68h-22.48c-1.65,5.77-4.5,10.14-8.56,13.1-4.06,2.96-9.45,4.43-16.19,4.43-6.19,0-11.28-1.34-15.26-4.02-3.99-2.68-7.01-6.74-9.08-12.17-1.76-4.63-2.76-10.24-3.02-16.81h75.21v-5.16c0-11.14-1.82-20.63-5.46-28.46-3.65-7.84-9.04-13.82-16.19-17.94Zm-41.77,14.33c3.92-2.82,8.83-4.23,14.75-4.23,5.5,0,10.21,1.34,14.13,4.02,3.92,2.68,6.81,6.6,8.66,11.76,1.19,3.32,2,7.14,2.42,11.45h-51.18c.49-3.83,1.27-7.28,2.34-10.31,1.99-5.64,4.95-9.86,8.87-12.69Z"/>
      <path class="cls-2" d="m1167.78,590.21c-2.82-5.57-7.05-9.8-12.69-12.69-5.64-2.89-12.58-4.33-20.83-4.33s-15.13,1.41-21.04,4.23c-5.92,2.82-10.49,6.43-13.72,10.83-1.33,1.81-2.46,3.67-3.4,5.57h-2.07l1.65-9.69v-8.87h-18.97v104.37h23.52v-60.44c0-8.66,2.44-15.4,7.32-20.21,4.88-4.81,11.38-7.22,19.49-7.22,7.01,0,12.38,1.96,16.09,5.88,3.72,3.92,5.57,9.73,5.57,17.43v64.56h23.31v-69.31c0-7.84-1.41-14.54-4.23-20.11Z"/>
    </g>
    <path class="cls-1" d="m933.05,480.01c109.9,0,167.39-31.58,167.39-62.77,0-19.35-22.14-38.86-65.2-50.87,6.76-24.89-.56-37.96-6.32-43.95-7.11-7.39-24.6-17.33-61.95-.85-49.59,21.89-105.47,77.04-128.61,126.57-32.96-8.72-51.78-21.04-51.78-30.82,0-13.53,36.01-31.92,95.64-38.91l15.16-22.74c-86.63,6.03-131.72,33.95-131.72,61.57,0,19.35,22.14,38.86,65.2,50.87-6.76,24.9.57,37.96,6.33,43.95,4.27,4.44,12.29,9.8,26.12,9.8,9.18,0,20.93-2.37,35.84-8.95,12.64-5.58,25.7-13.32,38.51-22.58l-26.57-7.56c-6.84,4.24-13.64,7.92-20.28,10.87-21.79,9.7-34.12,8.35-38.4,3.87-3.17-3.33-4.54-11.32-.7-24.51,22.75,4.42,49.9,7.02,81.36,7.02Zm146.47-62.69c0,14.09-39.07,33.46-103.21,39.73,21.75-21.97,40.3-46.9,51.38-70.56,32.99,8.72,51.83,21.05,51.83,30.83Zm-104.21-76.48c21.78-9.7,34.12-8.36,38.4-3.87,3.17,3.33,4.54,11.32.7,24.51-18.48-3.59-39.88-5.97-64.12-6.74,8.43-5.54,16.85-10.27,25.02-13.9Zm-52.51,34.82c3.37-.07,6.78-.11,10.25-.11,27.72,0,52.33,2.38,73.09,6.17-13.42,26.44-36.99,54.75-63.03,77.26-3.31.07-6.65.11-10.06.11-27.75,0-52.38-2.38-73.15-6.18,13.38-26.41,36.89-54.72,62.9-77.25Z"/>
    <g>
      <path class="cls-2" d="m814.3,732.73h-11.65v-3.74h27.42v3.74h-11.6v34.17h-4.17v-34.17Z"/>
      <path class="cls-2" d="m840.98,728.99h13.68c9.4,0,13.13,4.07,13.13,10,0,4.45-2.7,8.25-7.47,9l-1.21-.05v.44c5.5.55,8.13,3.52,8.13,9.45v5.06c0,1.42.11,2.63.66,3.45v.55h-4.4c-.49-.77-.76-2.08-.76-3.74v-5c0-4.95-1.98-7.58-8.46-7.58l-8.9.06v16.26h-4.4v-37.91Zm12.8,18.13c6.76,0,9.45-3.25,9.45-7.32,0-4.4-2.41-7.36-9.45-7.36h-8.4v14.68h8.4Z"/>
      <path class="cls-2" d="m877.54,766.3l13.02-37.31h6.43l13.02,37.31v.6h-4.29l-2.91-8.4h-18.13l-2.91,8.4h-4.23v-.6Zm24.01-11.38l-7.19-20.7-.28-1.66h-.72l-.28,1.66-7.2,20.7h15.66Z"/>
      <path class="cls-2" d="m921.02,728.99h13.13c11.64,0,16.64,6.97,16.64,18.89s-4.94,19.02-16.64,19.02h-13.13v-37.91Zm12.97,34.23c8.63,0,12.2-5.83,12.2-15.28s-3.63-15.28-12.2-15.28h-8.57v30.56h8.57Z"/>
      <path class="cls-2" d="m964.1,728.99h4.4v37.91h-4.4v-37.91Z"/>
      <path class="cls-2" d="m983.18,728.99h5.27l18.24,30.1.71,1.81h.77l-.17-1.97-.11-29.94h4.07v37.91h-5.33l-18.19-30.1-.72-1.81h-.76l.17,1.97.06,29.94h-4.01v-37.91Z"/>
      <path class="cls-2" d="m1025.12,747.88c0-11.97,5.66-19.39,16.15-19.39,8.57,0,14.01,4.9,15.11,12.91h-4.5c-1.05-5.66-4.84-9.18-10.55-9.18-7.58,0-11.65,6.06-11.65,15.77s4.12,15.66,11.71,15.66c7.14,0,10.33-5.16,10.66-12.74h-11.54v-3.14h15.93v19.13h-3.46v-3.89l.44-3.36h-.66c-1.7,4.23-5.27,7.74-12.03,7.74-10.05,0-15.6-7.57-15.6-19.51Z"/>
    </g>
  </g>
</svg>